PathFileType	4	(X/Y/Z)	path1_06_0-979.trc
DataRate	CameraRate	NumFrames	NumMarkers	Units	OrigDataRate	OrigDataStartFrame	OrigNumFrames
30	30	8	22	m	30	856	979
Frame#	Time	Hip			RHip			RKnee			RAnkle			RBigToe			RSmallToe			RHeel			LHip			LKnee			LAnkle			LBigToe			LSmallToe			LHeel			Neck			Head			Nose			RShoulder			RElbow			RWrist			LShoulder			LElbow			LWrist		
		X1	Y1	Z1	X2	Y2	Z2	X3	Y3	Z3	X4	Y4	Z4	X5	Y5	Z5	X6	Y6	Z6	X7	Y7	Z7	X8	Y8	Z8	X9	Y9	Z9	X10	Y10	Z10	X11	Y11	Z11	X12	Y12	Z12	X13	Y13	Z13	X14	Y14	Z14	X15	Y15	Z15	X16	Y16	Z16	X17	Y17	Z17	X18	Y18	Z18	X19	Y19	Z19	X20	Y20	Z20	X21	Y21	Z21	X22	Y22	Z22
857	28.566666666666663	3.1859396017657162	0.7898055466665314	0.3711845091534929	3.192409531921198	0.7603065500552901	0.4529213135310112	3.327073760948906	0.4508076782441293	0.44651647061464844	3.099143930144095	0.1680437745974654	0.4536125359245065	3.209353632447937	-0.0048464257405794265	0.5151989823029017	3.14483220305413	0.020083852467130767	0.5080463489897377	3.041502604436704	0.12607525793299315	0.42731078205581197	3.1935160205669746	0.7559228550553909	0.2903698317681098	3.237052336093322	0.42929693151538073	0.36343782998436236	3.1909264710703256	0.04925376744016618	0.30847043372244126	3.347081597322898	-0.019551170391766664	0.33591751698421174	3.311752047879674	-0.04002144948134988	0.3014573176765566	3.1494885507544756	-0.01460556761462352	0.30946517471027774	3.22029366467116	1.4173169848277096	0.41614974088835816	3.127551067756807	1.605999891973842	0.3602782596192263	3.3560468159593526	1.5362258365644241	0.3793260711585459	3.1776968985173535	1.3189624354388323	0.4710537088462102	3.1524208182401403	1.0185253394502347	0.5108732244980162	3.2187575285834575	0.7941260851010999	0.5434958417589475	3.212327195991635	1.322251575270546	0.2437386462803911	3.211704635265233	1.0218324916311652	0.16358667629504553	3.330064761128414	0.8205569404711154	0.17616500882794006
858	28.6	3.206193501583888	0.790534832128892	0.3721586445163382	3.2149258365775575	0.7613659448730982	0.4551601458063502	3.3696868681570886	0.45725538344047445	0.44098302026817227	3.172238496634267	0.14497883040856038	0.462713077063259	3.306073235775444	-0.008310804080456096	0.5151793367010915	3.247723933992236	0.011406243448801874	0.5193361615777105	3.1256669673507793	0.09142731606054735	0.44016176521818173	3.2086409692132656	0.7573928510239292	0.2917482441790617	3.240602767698707	0.43109915205048777	0.3611062101772973	3.1905309712180725	0.05222614557019781	0.30466483714745074	3.3424470663487305	-0.019316720070018684	0.33265974733908665	3.306518848685754	-0.037867691847920125	0.2937916993334332	3.148819126761078	-0.01309288207869232	0.3092764376835659	3.2429963266531003	1.4175441634089083	0.41698542967386876	3.1492397468901965	1.6067433710328018	0.361709603209903	3.374126035971439	1.5318352295992754	0.38367087412525275	3.194581678521288	1.3191415642064757	0.47429991720360976	3.171181665156778	1.0186705808226133	0.510100159450742	3.2394412076172174	0.7947825275957942	0.5401712364460125	3.242777830411644	1.3223310969825686	0.24733549187548567	3.258316335479615	1.0288753992615642	0.17236064151041783	3.3739999728280017	0.8289997206211166	0.17841641032855443
859	28.633333333333333	3.2265669817824723	0.7912769535596981	0.3737745398649417	3.2371002732850824	0.7625579632490769	0.4577334424287965	3.3999092460197815	0.46065040183005773	0.43699935568171494	3.249757868452335	0.11968544115383781	0.47056351618872705	3.404423416373259	-0.010444394793804242	0.5105377842273239	3.3539109367165425	0.0018713205868749188	0.5265364680449172	3.2140534908122786	0.056129701254567475	0.45396466366301524	3.2242789779546186	0.7591672801820127	0.2935072370744414	3.243754381365166	0.4335697879239911	0.358553128802166	3.1896524870098553	0.05564449148652791	0.30170548472021574	3.339325954493055	-0.01803348337559534	0.32909694487137287	3.3026573408229503	-0.03380986206872868	0.28347551696209505	3.148690233139693	-0.010197031064790339	0.3086649186506779	3.2656380318739173	1.4170205565452592	0.4151269065475391	3.1720254112127266	1.607740730899783	0.3638215445739787	3.390946849295758	1.525759084551451	0.3887209881194825	3.212445058074728	1.3182122296814738	0.47747839800943026	3.190522188571503	1.0180227998876592	0.5091540653310451	3.260351789480157	0.7942805403482044	0.5367022666861901	3.2716391649969685	1.3214186960500065	0.2516791929789308	3.3011231597577293	1.0351547746756722	0.18204846322828283	3.4158676834540747	0.8372731971746386	0.18393460837751985
860	28.666666666666668	3.247163080928216	0.7917454570563326	0.3759053114062895	3.2592887558135724	0.7634548146292561	0.4604537214859924	3.420242076341757	0.46037304621178665	0.43425188690910577	3.3291530835408354	0.09606924475107603	0.47567664462419645	3.50096070812024	-0.008784333691977243	0.5043580046587048	3.4561799951087937	-0.005764727122176001	0.528475917416133	3.301314599971859	0.026199001118949853	0.46757152341394337	3.2407981091970615	0.7607189801811438	0.2954879790058727	3.2471100738147447	0.4361621842489436	0.35622530904826266	3.1885849642657877	0.05874975173920336	0.2998020252514153	3.3391393728206675	-0.016447337837603954	0.3270889738944018	3.3020088178040026	-0.029163436588897362	0.2740447170351274	3.1483511986452966	-0.006779564065548964	0.3081577974185861	3.28820489501949	1.4157512575891547	0.409893838977849	3.196926802788188	1.6092901430431805	0.3674372807429898	3.4079264513117256	1.5194180741373209	0.3936864395854486	3.2311662392724103	1.3161467212545737	0.4805834172464052	3.210422776227447	1.0165901079486177	0.5083589076094924	3.2809902235354684	0.7925085895539316	0.5341655896804988	3.298463800565626	1.3193798401498749	0.25651989954044707	3.3382670519448667	1.0391953373104632	0.19090676269531393	3.4549388860845816	0.8446005892973867	0.19197469218675883
861	28.7	3.268250304685696	0.7914483395495859	0.3784942030428526	3.2820226856344963	0.7635688238396356	0.4633111350283265	3.4354493410577014	0.45684021651827134	0.43207359326139955	3.405706345665141	0.07752108144010277	0.477633931517973	3.5884113234842245	-0.003214098025401872	0.49942000058742914	3.546145091360425	-0.010620794517401805	0.525931147468414	3.382206108467335	0.005949468760297959	0.4790967757699523	3.25836450021421	0.761490120777714	0.2977133710936461	3.2516022560115885	0.43838979615085255	0.3546410237219134	3.1876135385748166	0.061058720092620235	0.29876711220633934	3.341229861734524	-0.015144986769201155	0.327388398723642	3.304187519846931	-0.02514292100170119	0.2683420030473366	3.1473057448403234	-0.003768794414854118	0.30808699111041016	3.310496146934885	1.4137549908743998	0.40143770276695856	3.2245011512808865	1.611618506791724	0.37324140963029717	3.427220779319361	1.5150458693881037	0.39863608292317537	3.2505424757416437	1.3131658284759706	0.4835960606408119	3.2308395126071314	1.0144284356981697	0.5080773538796206	3.301525196916274	0.789698629930911	0.5329823307236556	3.3230653943798845	1.316325590814878	0.261633824468935	3.3695761484831372	1.040439508747919	0.19865405868803074	3.4905760213268153	0.8502829716100112	0.20144052106665836
862	28.73333333333333	3.290048276309271	0.7900437677103193	0.3816312322942546	3.3058557043638706	0.7625292578957823	0.4664063391416605	3.450241001984253	0.4513408309692519	0.4302488269484478	3.473402502656319	0.06559728869014651	0.47773651187459387	3.658990786183512	0.003926101478909549	0.49761288959072525	3.616737210347174	-0.013807974368185653	0.5211856150066102	3.451897350850413	-0.003932135455556868	0.4865947492237125	3.277076986553867	0.7610551643147347	0.30034008650194705	3.2584817163575983	0.43994773040314306	0.354471275923088	3.1869580271027202	0.06250671806899506	0.2982665799745035	3.343813474465187	-0.01427003042163313	0.3296977852123038	3.3074668769664286	-0.02246938539447617	0.26811497840117077	3.1455483579615087	-0.0017341149025238687	0.3083785556227415	3.3322734458813894	1.4111037534900097	0.3922713139643799	3.2539041603123047	1.6144507476578172	0.3813000813464649	3.449942765844595	1.5139407966047254	0.40413846638985845	3.270667111082295	1.3096259357028792	0.48633064277558996	3.251987906116067	1.011626993806607	0.5085891614742799	3.3225133578789965	0.7862563316172979	0.533179885982548	3.3454584875131803	1.3125668849788967	0.2668060255480236	3.3960275199297296	1.039041276854695	0.2059558255940738	3.5221497941768605	0.8537097567698094	0.21146197779016607
863	28.766666666666666	3.31266284264707	0.7875764436604085	0.3854942808082665	3.3311935780219097	0.7601877760093273	0.46980978634959164	3.4676011545387513	0.4454177215096992	0.4289035295070118	3.5269865430087544	0.05972758268198734	0.4783601445281317	3.708581512038239	0.009640553635105973	0.4984977618739293	3.665443197047727	-0.016775762747056153	0.5164157609183292	3.5057993798325544	-0.006499062653086853	0.4888086497488203	3.2971564098651456	0.7592199688726549	0.30357676234830683	3.2690558652261212	0.4405447103767521	0.3563654752848582	3.1867909681730544	0.06342806148439867	0.2979695516728155	3.3457693574459655	-0.01377948768951358	0.33332281130745894	3.3105306899538287	-0.021536276815598224	0.2741945763736439	3.1434235330972755	-0.0005926299041720586	0.3087241810100039	3.353372427345332	1.4079617300258322	0.3878741865214208	3.281699265302507	1.6163827772069506	0.3902327686754006	3.4748728918594702	1.5151399823057559	0.4102551244336095	3.2918615668563755	1.3058903538183	0.4885588337887873	3.2742679161649733	1.0083462511801502	0.5100843977636551	3.3445947952679553	0.782572329921377	0.534533686862401	3.365741951419164	1.3084767632869587	0.27176518489193857	3.4188438178832214	1.0355763566582759	0.21359687813820266	3.5488768810300044	0.8545105277060041	0.2213571115777948
864	28.8	3.336168401054608	0.7843760752790685	0.3901703893042481	3.358103422247589	0.756686072075056	0.4734940393644747	3.488282559441293	0.4401579210185226	0.42819852914590745	3.5644712232714917	0.05799019588585022	0.48104845820900005	3.7382090046314396	0.011978325697786037	0.499821647635799	3.69482013886537	-0.019970823615717496	0.5128823864675929	3.5414019967913988	-0.006426775667090796	0.4856389481386012	3.3189741084345754	0.7560713067406629	0.30762136671848533	3.2843998131874574	0.4398092433753387	0.3605988603405216	3.1872879409965846	0.0643893467331118	0.297633925990105	3.3468907541645136	-0.013692632233156244	0.337443102233006	3.312786919043594	-0.02225683325072215	0.28523668015041326	3.141451324240551	0.00039539857664355684	0.3088081990140756	3.3737919513128047	1.4046606572927658	0.3934502257576052	3.3025502276205767	1.6151753111072829	0.3972319231245417	3.499881290223633	1.5169186163106796	0.41632454183664525	3.3142481245044	1.3023287331431328	0.49031903889226547	3.2978985116945867	1.0049145931837127	0.5126923862519224	3.3681883860880513	0.7789825484244775	0.5367772230203397	3.3840669586289662	1.3043785408144775	0.2760859560836497	3.438975545115571	1.0307946057108324	0.22197214934962559	3.5698766871741063	0.8526357191740939	0.23032788593240988
